<svg xmlns="http://www.w3.org/2000/svg" width="900" height="520"><rect width="900" height="520" fill="#ece9e2"/><rect x="55" y="36" width="790" height="448" rx="18" fill="#fbfaf7"/><rect x="55" y="36" width="790" height="54" rx="18" fill="#262824"/><text x="82" y="70" font-family="Arial" font-size="14" fill="#eae9e3">Deal Documents</text><rect x="83" y="121" width="735" height="54" rx="8" fill="#efede7"/><text x="104" y="145" font-family="Arial" font-size="13" fill="#262824">Primary trade — Investor A</text><text x="104" y="164" font-family="Arial" font-size="10" fill="#77756f">3 generated documents • Ready for signature</text><rect x="685" y="133" width="98" height="28" rx="14" fill="#343732"/><text x="708" y="151" font-family="Arial" font-size="10" fill="#f7f5f0">OPEN</text><g fill="#f4f2ec"><rect x="83" y="195" width="230" height="232" rx="10"/><rect x="335" y="195" width="230" height="232" rx="10"/><rect x="587" y="195" width="230" height="232" rx="10"/></g><g fill="#8f8b80"><rect x="105" y="218" width="140" height="8" rx="4"/><rect x="357" y="218" width="140" height="8" rx="4"/><rect x="609" y="218" width="140" height="8" rx="4"/></g><g stroke="#c7c3b8" stroke-width="6"><path d="M109 255 H284 M109 279 H265 M109 303 H281 M109 327 H249"/><path d="M361 255 H536 M361 279 H516 M361 303 H532 M361 327 H495"/><path d="M613 255 H788 M613 279 H768 M613 303 H784 M613 327 H747"/></g></svg>