<svg xmlns="http://www.w3.org/2000/svg" width="900" height="520"><rect width="900" height="520" fill="#0f1110"/><rect x="38" y="30" width="824" height="460" rx="18" fill="#191d1b" stroke="#545d56"/><circle cx="450" cy="260" r="142" fill="#28312c"/><path d="M345 338 C357 251 392 171 450 155 C510 166 548 245 558 337" fill="#6c756e"/><circle cx="450" cy="218" r="65" fill="#8a8f85"/><path d="M412 198 Q450 169 490 198" fill="none" stroke="#c5c7bd" stroke-width="8"/><path d="M420 224 H440 M460 224 H480" stroke="#222" stroke-width="8" stroke-linecap="round"/><path d="M438 252 Q451 262 465 252" fill="none" stroke="#353936" stroke-width="5"/><g fill="none" stroke="#8dd2ba" stroke-width="2" opacity=".75"><rect x="312" y="126" width="276" height="270" rx="40"/><path d="M450 100 V420 M280 260 H620"/></g><text x="61" y="64" font-family="Arial" font-size="13" fill="#b9c2bc">FACE TRACK / LIVE</text></svg>