<svg xmlns="http://www.w3.org/2000/svg" width="900" height="520"><rect width="900" height="520" fill="#ebe5db"/><rect x="0" y="0" width="900" height="70" fill="#f7f4ed"/><text x="34" y="44" font-family="Georgia" font-size="25" fill="#26231f">NIYARAA</text><g font-family="Arial" font-size="12" fill="#6d675f"><text x="650" y="42">SHOP</text><text x="720" y="42">ABOUT</text><text x="790" y="42">CART (0)</text></g><rect x="0" y="70" width="520" height="450" fill="#d7c4b9"/><circle cx="260" cy="280" r="138" fill="#c39291"/><path d="M255 395 C250 330 271 274 281 198" stroke="#687861" stroke-width="10" fill="none"/><g fill="#e2c2c1"><ellipse cx="278" cy="182" rx="35" ry="60" transform="rotate(15 278 182)"/><ellipse cx="233" cy="192" rx="35" ry="60" transform="rotate(-25 233 192)"/><ellipse cx="260" cy="150" rx="35" ry="60"/></g><rect x="520" y="70" width="380" height="450" fill="#f8f5ef"/><text x="572" y="165" font-family="Georgia" font-size="42" fill="#2a2824">Forever flowers,</text><text x="572" y="208" font-family="Georgia" font-size="42" fill="#2a2824">made by hand.</text><text x="574" y="255" font-family="Arial" font-size="14" fill="#777168">Pipe-cleaner florals and thoughtful gifts.</text><rect x="574" y="302" width="145" height="44" rx="22" fill="#2d302b"/><text x="610" y="330" font-family="Arial" font-size="12" fill="#f6f2e9">SHOP THE DROP</text></svg>